<?xml version="1.0" encoding="UTF-8" standalone="no"?>
<!-- Created with Inkscape (http://www.inkscape.org/) -->

<svg
   xmlns:dc="http://purl.org/dc/elements/1.1/"
   xmlns:cc="http://creativecommons.org/ns#"
   xmlns:rdf="http://www.w3.org/1999/02/22-rdf-syntax-ns#"
   xmlns:svg="http://www.w3.org/2000/svg"
   xmlns="http://www.w3.org/2000/svg"
   xmlns:sodipodi="http://sodipodi.sourceforge.net/DTD/sodipodi-0.dtd"
   xmlns:inkscape="http://www.inkscape.org/namespaces/inkscape"
   id="svg3147"
   version="1.1"
   inkscape:version="0.48.4 r9939"
   width="512"
   height="512"
   sodipodi:docname="checked.svg">
  <metadata
     id="metadata3153">
    <rdf:RDF>
      <cc:Work
         rdf:about="">
        <dc:format>image/svg+xml</dc:format>
        <dc:type
           rdf:resource="http://purl.org/dc/dcmitype/StillImage" />
        <dc:title></dc:title>
      </cc:Work>
    </rdf:RDF>
  </metadata>
  <defs
     id="defs3151" />
  <sodipodi:namedview
     pagecolor="#ffffff"
     bordercolor="#666666"
     borderopacity="1"
     objecttolerance="10"
     gridtolerance="10"
     guidetolerance="10"
     inkscape:pageopacity="0"
     inkscape:pageshadow="2"
     inkscape:window-width="1366"
     inkscape:window-height="744"
     id="namedview3149"
     showgrid="false"
     inkscape:zoom="0.99358395"
     inkscape:cx="334.96171"
     inkscape:cy="157.5014"
     inkscape:window-x="0"
     inkscape:window-y="24"
     inkscape:window-maximized="1"
     inkscape:current-layer="svg3147" />
  <path
     style="fill:#706deb"
     d="M 87,511.33032 C 44.810154,506.81566 11.134024,476.7537 2.2688079,435.6926 0.61578672,428.03629 0.5,416.27356 0.5,256 0.5,95.726444 0.61578672,83.96371 2.2688079,76.307397 10.282453,39.190528 39.190528,10.282453 76.307397,2.2688079 83.96371,0.61578672 95.726444,0.5 256,0.5 416.27356,0.5 428.03629,0.61578672 435.6926,2.2688079 472.80947,10.282453 501.71755,39.190528 509.73119,76.307397 511.38421,83.96371 511.5,95.726444 511.5,256 c 0,160.27356 -0.11579,172.03629 -1.76881,179.6926 -7.91133,36.64298 -35.91121,65.0231 -72.98473,73.97588 -6.7422,1.62815 -19.0415,1.75989 -176.74646,1.89315 -93.225,0.0788 -171.075,-0.0253 -173,-0.23131 z m 346.07213,-41.06556 c 17.3331,-5.89515 31.81846,-20.57936 37.21241,-37.72323 L 472.5,425.5 l 0,-169.5 0,-169.5 -2.21546,-7.041525 C 464.79609,62.014239 449.98576,47.203906 432.54153,41.715461 L 425.5,39.5 256,39.5 86.5,39.5 79.458475,41.715461 C 62.314597,47.109405 47.630388,61.59477 41.735242,78.92787 L 39.5,85.5 39.232896,252.73195 c -0.289761,181.41782 -0.476215,174.575 5.084401,186.5963 5.470474,11.82643 16.491558,22.83605 28.39133,28.36181 11.55751,5.36683 4.682001,5.1822 185.791373,4.98908 l 168,-0.17914 6.57213,-2.23524 z M 211.62399,427.41954 c -2.68181,-0.85445 -6.73181,-2.69733 -9,-4.09529 -5.73693,-3.53586 -116.321007,-113.97086 -118.694412,-118.53441 -2.518287,-4.84213 -2.527917,-12.70606 -0.02153,-17.57968 1.049429,-2.04059 9.036929,-10.73113 17.750002,-19.31232 14.5501,-14.32986 16.26027,-15.70154 20.97176,-16.82091 10.51684,-2.49861 9.54008,-3.22826 51.20797,38.25275 l 37.33777,37.17032 1.9019,-2.5 c 1.04604,-1.375 36.21904,-53.11212 78.16222,-114.97137 52.50777,-77.44028 77.27985,-113.154934 79.53362,-114.666036 3.87854,-2.600475 9.94886,-3.802167 14.33746,-2.83827 3.29187,0.723016 33.314,20.275676 39.58072,25.777926 6.64805,5.83707 8.3404,15.55259 4.05853,23.29942 -4.78423,8.6557 -186.89755,276.21542 -190.46989,279.83713 -7.09851,7.19663 -17.46103,9.91038 -26.65612,6.98074 z"
     id="path3157"
     inkscape:connector-curvature="0" />
</svg>
