<?xml version="1.0" encoding="UTF-8" standalone="no"?>
<!-- Created with Inkscape (http://www.inkscape.org/) -->

<svg
   xmlns:dc="http://purl.org/dc/elements/1.1/"
   xmlns:cc="http://creativecommons.org/ns#"
   xmlns:rdf="http://www.w3.org/1999/02/22-rdf-syntax-ns#"
   xmlns:svg="http://www.w3.org/2000/svg"
   xmlns="http://www.w3.org/2000/svg"
   xmlns:sodipodi="http://sodipodi.sourceforge.net/DTD/sodipodi-0.dtd"
   xmlns:inkscape="http://www.inkscape.org/namespaces/inkscape"
   width="413.09"
   height="451.35999"
   id="svg3120"
   version="1.1"
   inkscape:version="0.48.4 r9939"
   sodipodi:docname="jobrole.svg">
  <defs
     id="defs3122" />
  <sodipodi:namedview
     id="base"
     pagecolor="#ffffff"
     bordercolor="#666666"
     borderopacity="1.0"
     inkscape:pageopacity="0.0"
     inkscape:pageshadow="2"
     inkscape:zoom="1.1929665"
     inkscape:cx="247.38251"
     inkscape:cy="145.90348"
     inkscape:document-units="px"
     inkscape:current-layer="layer1"
     showgrid="false"
     inkscape:window-width="1366"
     inkscape:window-height="744"
     inkscape:window-x="0"
     inkscape:window-y="24"
     inkscape:window-maximized="1" />
  <metadata
     id="metadata3125">
    <rdf:RDF>
      <cc:Work
         rdf:about="">
        <dc:format>image/svg+xml</dc:format>
        <dc:type
           rdf:resource="http://purl.org/dc/dcmitype/StillImage" />
        <dc:title></dc:title>
      </cc:Work>
    </rdf:RDF>
  </metadata>
  <g
     inkscape:label="Layer 1"
     inkscape:groupmode="layer"
     id="layer1"
     transform="translate(0,-600.99236)">
    <path
       style="fill:#7672e0"
       d="m 273.36077,1051.8512 c -6.19325,-1.0372 -12.71256,-5.8165 -16.06526,-11.7776 l -2.99779,-5.3299 0.02,-49.66516 0.02,-49.66511 -44.50642,-44.68262 c -24.47853,-24.57544 -45.76901,-46.58977 -47.31216,-48.92073 -4.2909,-6.48145 -6.28494,-15.23558 -5.71397,-25.0852 0.46131,-7.95806 1.20782,-10.13135 17.10446,-49.79591 9.14215,-22.81107 16.26382,-41.83295 15.82594,-42.27083 -0.43789,-0.43789 -10.12486,-0.67428 -21.5266,-0.52532 l -20.73037,0.27083 -13.36302,29.5 c -7.34966,16.225 -14.49287,31.38615 -15.8738,33.69145 -6.25224,10.4374 -21.614277,11.73681 -30.140135,2.54942 -3.57124,-3.84834 -5.89266,-10.4499 -5.26865,-14.98275 0.44432,-3.22749 22.396335,-52.76329 30.254105,-68.26986 3.49332,-6.89373 11.23168,-14.52187 17.75826,-17.50531 8.88952,-4.06359 16.80063,-4.65653 57.46849,-4.30728 l 37.7673,0.32433 13.22319,4.46238 13.22319,4.46238 1.15873,5.53762 c 1.10978,5.30373 0.66836,31.34365 -0.67872,40.03762 -0.51852,3.34652 -0.472,3.4123 1.06074,1.5 5.46595,-6.81946 15.12742,-28.40872 16.19329,-36.1851 0.57612,-4.20321 0.76026,-4.42182 3.21535,-3.81723 10.10246,2.4878 18.21313,14.62197 16.66666,24.93457 -0.33605,2.24095 -11.78667,31.97295 -25.44581,66.07111 l -24.83482,61.99665 26.80476,27.02161 c 30.32919,30.57454 32.2566,33.30967 34.07559,48.35569 0.5197,4.29875 0.80832,29.59744 0.64138,56.21931 l -0.30353,48.40334 -3.10608,5.5 c -5.01899,8.8873 -14.733,13.6023 -24.6143,11.9476 z m -183.279615,-18.325 c -5.95831,-2.8098 -8.67418,-5.5748 -11.41597,-11.6225 -2.56724,-5.6628 -2.63134,-13.198 -0.1586,-18.6436 1.03812,-2.2863 10.3504,-13.49249 20.774788,-25.00003 10.391297,-11.47103 23.632907,-26.11119 29.425787,-32.53369 l 10.53251,-11.67727 5.22696,-37.82273 c 2.87482,-20.8025 5.41319,-38.38694 5.64081,-39.07653 0.34989,-1.06 40.47361,38.43205 41.23621,40.58703 0.14438,0.40798 -1.30666,11.74991 -3.22454,25.20428 -4.35197,30.53021 -5.34923,32.9043 -21.21884,50.51397 -29.95896,33.24387 -50.9593,56.13127 -52.96576,57.72517 -6.55709,5.2088 -15.845417,6.1223 -23.853355,2.3459 z M 69.445395,901.56285 c -32.95683,-17.10363 -57.85695,-30.19102 -60.6230798,-31.86321 -4.82546,-2.9171 -8.34609998,-9.5591 -8.39472998,-15.83745 -0.0303,-3.91597 0.73414998,-6.66401 3.14782998,-11.3153 19.6013298,-37.77282 21.4005298,-40.87612 25.1293098,-43.34371 4.9796,-3.29534 10.44507,-4.46985 15.06742,-3.23792 6.36978,1.69763 69.011635,34.9486 73.043405,38.77222 2.05392,1.94788 4.24363,5.08459 4.86603,6.97046 2.35803,7.14493 0.88966,11.71475 -11.03679,34.34839 -14.415087,27.3565 -16.701657,29.84732 -27.399735,29.84732 -4.46119,0 -6.93461,-0.77804 -13.79966,-4.3408 z m 258.135755,-75.488 c -11.57511,-4.30541 -15.34293,-8.02923 -29.24542,-28.90393 l -10.74542,-16.13434 8.76971,-21.9136 8.76972,-21.9136 17.22765,25.84713 17.22766,25.84714 27.24805,0.006 c 16.12339,0.003 28.80797,0.43874 31.06883,1.06654 9.27388,2.57522 16.1134,13.88802 13.73548,22.71896 -1.51094,5.61119 -5.0172,10.33965 -9.58583,12.92724 -3.90174,2.20987 -4.54136,2.24772 -36.97043,2.18773 -28.29476,-0.0523 -33.64162,-0.29971 -37.5,-1.73485 z M 271.75544,683.81354 c -12.07585,-1.60962 -24.60113,-11.04768 -29.83595,-22.48203 -12.8877,-28.15045 10.52003,-59.5049 41.30474,-55.32733 7.91698,1.07436 17.15846,5.9108 22.78187,11.92268 25.47519,27.23505 2.8142,70.82712 -34.25066,65.88668 z"
       id="path3107"
       inkscape:connector-curvature="0" />
  </g>
</svg>
