<?xml version="1.0" encoding="UTF-8" standalone="no"?>
<!-- Created with Inkscape (http://www.inkscape.org/) -->

<svg
   xmlns:dc="http://purl.org/dc/elements/1.1/"
   xmlns:cc="http://creativecommons.org/ns#"
   xmlns:rdf="http://www.w3.org/1999/02/22-rdf-syntax-ns#"
   xmlns:svg="http://www.w3.org/2000/svg"
   xmlns="http://www.w3.org/2000/svg"
   xmlns:sodipodi="http://sodipodi.sourceforge.net/DTD/sodipodi-0.dtd"
   xmlns:inkscape="http://www.inkscape.org/namespaces/inkscape"
   id="svg3269"
   version="1.1"
   inkscape:version="0.48.4 r9939"
   width="710"
   height="710"
   sodipodi:docname="Linkedin-logo.svg">
  <metadata
     id="metadata3275">
    <rdf:RDF>
      <cc:Work
         rdf:about="">
        <dc:format>image/svg+xml</dc:format>
        <dc:type
           rdf:resource="http://purl.org/dc/dcmitype/StillImage" />
        <dc:title></dc:title>
      </cc:Work>
    </rdf:RDF>
  </metadata>
  <defs
     id="defs3273" />
  <sodipodi:namedview
     pagecolor="#ffffff"
     bordercolor="#666666"
     borderopacity="1"
     objecttolerance="10"
     gridtolerance="10"
     guidetolerance="10"
     inkscape:pageopacity="0"
     inkscape:pageshadow="2"
     inkscape:window-width="1366"
     inkscape:window-height="744"
     id="namedview3271"
     showgrid="false"
     fit-margin-top="0"
     fit-margin-left="0"
     fit-margin-right="0"
     fit-margin-bottom="0"
     inkscape:zoom="0.6855482"
     inkscape:cx="678.13306"
     inkscape:cy="299.71818"
     inkscape:window-x="0"
     inkscape:window-y="24"
     inkscape:window-maximized="1"
     inkscape:current-layer="svg3269" />
  <path
     style="fill:#ffffff"
     d="M 39.209475,708.44431 C 25.66086,704.7974 12.220682,694.53694 6.2345647,683.27072 -0.51377081,670.56997 0,697.49811 0,356.5 0,15.501888 -0.51377081,42.430032 6.2345647,29.729275 10.080075,22.491803 20.924974,12.126887 28.30516,8.6354998 41.108676,2.5784669 16.746833,3 354,3 c 271.75951,0 309.27045,0.179891 314.36792,1.5076128 18.46558,4.8096731 33.58927,19.3871422 38.24195,36.8607792 2.03927,7.658677 2.03927,622.604538 0,630.263218 -3.41223,12.81498 -15.03866,27.0363 -26.73684,32.7042 -12.56705,6.08887 11.82657,5.67039 -326.33313,5.59838 C 89.452987,709.87795 43.73044,709.66123 39.209475,708.44431 z M 210,437 l 0,-169 -52.5,0 -52.5,0 0,168.33333 c 0,92.58334 0.3,168.63334 0.66667,169 C 106.03333,605.7 129.65833,606 158.16667,606 L 210,606 210,437 z m 171.08998,72 c 0.62783,-102.69011 0.48386,-99.62264 5.48948,-116.9589 7.7757,-26.93001 29.85926,-41.31139 60.92054,-39.67301 23.20068,1.22377 37.30675,11.42939 44.64389,32.29948 5.2983,15.07069 5.17554,12.51794 5.78655,120.33243 l 0.56956,100.5 52.5,0 52.5,0 0.29767,-91 c 0.38121,-116.54166 -0.83112,-143.21472 -7.73904,-170.27039 -12.61086,-49.39184 -41.08133,-75.35997 -90.69931,-82.72753 -19.46836,-2.89077 -43.34127,-2.05147 -59.85932,2.10449 -26.11771,6.57124 -49.29704,22.58318 -63.40676,43.80045 L 377.5,314.31404 377.23157,291.15702 376.96314,268 326.48157,268 276,268 l 0,168.33333 c 0,92.58334 0.30401,168.63734 0.67557,169.00891 0.37157,0.37157 23.88407,0.55907 52.25,0.41667 L 380.5,605.5 381.08998,509 z M 172.40399,220.02456 C 183.99332,217.0605 191.35822,212.74101 200.5,203.54631 212.74575,191.22968 218.30419,177.92542 218.2756,161 c -0.0277,-16.41977 -5.95269,-30.62436 -17.76946,-42.6008 -16.20975,-16.42878 -40.2982,-22.238655 -61.94692,-14.94094 -10.48288,3.53374 -16.27094,7.13196 -24.1,14.98205 C 102.39992,130.532 97,143.69519 97,161 c 0,17.80934 4.9972,29.95706 17.5,42.54082 5.01214,5.04458 10.31623,9.26061 14.20171,11.28839 13.36204,6.97348 29.32838,8.87157 43.70228,5.19535 z"
     id="path2983"
     inkscape:connector-curvature="0" />
</svg>
