<?xml version="1.0" encoding="UTF-8" standalone="no"?>
<!-- Generator: Adobe Illustrator 16.0.0, SVG Export Plug-In . SVG Version: 6.00 Build 0)  -->

<svg
   xmlns:dc="http://purl.org/dc/elements/1.1/"
   xmlns:cc="http://creativecommons.org/ns#"
   xmlns:rdf="http://www.w3.org/1999/02/22-rdf-syntax-ns#"
   xmlns:svg="http://www.w3.org/2000/svg"
   xmlns="http://www.w3.org/2000/svg"
   xmlns:sodipodi="http://sodipodi.sourceforge.net/DTD/sodipodi-0.dtd"
   xmlns:inkscape="http://www.inkscape.org/namespaces/inkscape"
   version="1.1"
   id="Layer_1"
   x="0px"
   y="0px"
   viewBox="0 0 44.854 80.006"
   enable-background="new 0 0 44.854 80.006"
   xml:space="preserve"
   inkscape:version="0.48.4 r9939"
   sodipodi:docname="location_picker.svg"
   width="100%"
   height="100%"><metadata
     id="metadata19"><rdf:RDF><cc:Work
         rdf:about=""><dc:format>image/svg+xml</dc:format><dc:type
           rdf:resource="http://purl.org/dc/dcmitype/StillImage" /><dc:title></dc:title></cc:Work></rdf:RDF></metadata><defs
     id="defs17" /><sodipodi:namedview
     pagecolor="#ffffff"
     bordercolor="#666666"
     borderopacity="1"
     objecttolerance="10"
     gridtolerance="10"
     guidetolerance="10"
     inkscape:pageopacity="0"
     inkscape:pageshadow="2"
     inkscape:window-width="1366"
     inkscape:window-height="744"
     id="namedview15"
     showgrid="false"
     inkscape:zoom="19.28125"
     inkscape:cx="14.415685"
     inkscape:cy="44.607954"
     inkscape:window-x="0"
     inkscape:window-y="24"
     inkscape:window-maximized="1"
     inkscape:current-layer="Layer_1" /><g
     id="g3"
     style="display:inline"><path
       style="fill:#7672e0"
       d="M 5.1540519,19.033102 C 2.7588641,14.087669 0.8943927,9.5742705 0.30260517,7.2890146 0.04970993,6.3124305 -0.01053236,5.8094313 0.05317862,5.2064023 0.23374848,3.4972953 1.076929,2.0774516 2.4638652,1.147013 3.2525457,0.61791962 4.0428668,0.33747554 5.0323462,0.23559185 6.6866233,0.06525596 8.4913807,0.78364423 9.6027465,2.0548516 c 0.6732985,0.7701346 1.0772315,1.5858762 1.2859745,2.5970178 0.112561,0.5452449 0.114926,1.3515584 0.0056,1.900978 C 10.444557,8.812497 8.626508,13.305552 5.7234077,19.331978 l -0.2117315,0.439524 -0.3576243,-0.7384 z M 6.153716,8.0618614 C 6.9836516,7.8342261 7.6580354,7.1608445 7.8784983,6.3396423 8.0353096,5.7555372 7.9745488,5.1662256 7.699043,4.5991264 7.3968163,3.9770242 6.7952227,3.4901178 6.1047853,3.3087954 5.9518365,3.2686281 5.7482876,3.249553 5.4894514,3.2511308 4.8046273,3.2553053 4.2634422,3.4808883 3.7811083,3.9632225 3.2987742,4.4455563 3.0731912,4.9867414 3.0690167,5.6715655 c -0.00282,0.4629112 0.056286,0.7186063 0.2641683,1.142763 0.1171438,0.2390168 0.2072399,0.35965 0.4498474,0.6023159 0.254494,0.2545562 0.3569028,0.3293035 0.635692,0.4639867 0.1827795,0.088301 0.4430864,0.1849033 0.5784599,0.2146721 0.298996,0.06575 0.8533289,0.049721 1.1565317,-0.033442 l 0,0 z"
       id="path2996"
       inkscape:connector-curvature="0"
       transform="matrix(4.0776364,0,0,4.0776364,0,-0.77336364)" /></g></svg>