<?xml version="1.0" encoding="UTF-8" standalone="no"?>
<!-- Created with Inkscape (http://www.inkscape.org/) -->

<svg
   xmlns:dc="http://purl.org/dc/elements/1.1/"
   xmlns:cc="http://creativecommons.org/ns#"
   xmlns:rdf="http://www.w3.org/1999/02/22-rdf-syntax-ns#"
   xmlns:svg="http://www.w3.org/2000/svg"
   xmlns="http://www.w3.org/2000/svg"
   xmlns:sodipodi="http://sodipodi.sourceforge.net/DTD/sodipodi-0.dtd"
   xmlns:inkscape="http://www.inkscape.org/namespaces/inkscape"
   width="512.1795"
   height="511.98514"
   id="svg3052"
   version="1.1"
   inkscape:version="0.48.4 r9939"
   sodipodi:docname="radioon.svg">
  <defs
     id="defs3054" />
  <sodipodi:namedview
     id="base"
     pagecolor="#ffffff"
     bordercolor="#666666"
     borderopacity="1.0"
     inkscape:pageopacity="0.0"
     inkscape:pageshadow="2"
     inkscape:zoom="0.71880891"
     inkscape:cx="482.86777"
     inkscape:cy="126.57266"
     inkscape:document-units="px"
     inkscape:current-layer="layer1"
     showgrid="false"
     fit-margin-top="0"
     fit-margin-left="0"
     fit-margin-right="0"
     fit-margin-bottom="0"
     inkscape:window-width="1366"
     inkscape:window-height="744"
     inkscape:window-x="0"
     inkscape:window-y="24"
     inkscape:window-maximized="1" />
  <metadata
     id="metadata3057">
    <rdf:RDF>
      <cc:Work
         rdf:about="">
        <dc:format>image/svg+xml</dc:format>
        <dc:type
           rdf:resource="http://purl.org/dc/dcmitype/StillImage" />
        <dc:title></dc:title>
      </cc:Work>
    </rdf:RDF>
  </metadata>
  <g
     inkscape:label="Layer 1"
     inkscape:groupmode="layer"
     id="layer1"
     transform="translate(-58.057054,-258.17097)">
    <g
       id="g3030"
       transform="translate(58.146797,258.26071)">
      <path
         style="fill:#7672e0;fill-opacity:1"
         d="M 223.56387,509.37525 C 108.30046,494.61327 16.757498,402.52482 2.535561,287.02986 c -1.98821176,-16.14607 -1.98821176,-45.91365 0,-62.05972 C 16.837191,108.828 108.828,16.837191 224.97014,2.535561 c 16.14607,-1.98821176 45.91365,-1.98821176 62.05972,0 C 403.172,16.837191 495.16281,108.828 509.46444,224.97014 c 1.98821,16.14607 1.98821,45.91365 0,62.05972 C 495.16281,403.172 403.172,495.16281 287.02986,509.46444 c -15.46886,1.90482 -48.25628,1.85874 -63.46599,-0.0892 z M 280,431.86207 C 350.81657,423.12459 411.04419,368.98018 428.34552,298.5 c 6.8388,-27.85916 6.68165,-58.69662 -0.44334,-86.99387 C 412.1789,149.06034 361.67629,99.162862 298.5,83.654483 270.64084,76.815677 239.80338,76.97283 211.50613,84.09782 149.93796,99.600125 99.600125,149.93796 84.09782,211.50613 78.873137,232.25622 77.185146,260.37676 79.98634,280 91.89045,363.39201 159.11922,426.68022 242.5,432.98805 c 11.20891,0.84797 24.8117,0.43953 37.5,-1.12598 z m -42,-89.83888 c -34.67771,-7.49075 -61.84516,-35.25531 -68.42206,-69.92589 -8.9374,-47.11413 22.89715,-93.52249 70.32476,-102.51936 60.05232,-11.39173 113.91109,42.46704 102.51936,102.51936 -9.13294,48.14493 -56.9668,80.17672 -104.42206,69.92589 z"
         id="path3032"
         inkscape:connector-curvature="0" />
    </g>
  </g>
</svg>
