<?xml version="1.0" encoding="UTF-8" standalone="no"?>
<!-- Created with Inkscape (http://www.inkscape.org/) -->

<svg
   xmlns:dc="http://purl.org/dc/elements/1.1/"
   xmlns:cc="http://creativecommons.org/ns#"
   xmlns:rdf="http://www.w3.org/1999/02/22-rdf-syntax-ns#"
   xmlns:svg="http://www.w3.org/2000/svg"
   xmlns="http://www.w3.org/2000/svg"
   xmlns:sodipodi="http://sodipodi.sourceforge.net/DTD/sodipodi-0.dtd"
   xmlns:inkscape="http://www.inkscape.org/namespaces/inkscape"
   id="svg3354"
   version="1.1"
   inkscape:version="0.48.4 r9939"
   width="1139"
   height="926"
   sodipodi:docname="Twitter.svg">
  <metadata
     id="metadata3360">
    <rdf:RDF>
      <cc:Work
         rdf:about="">
        <dc:format>image/svg+xml</dc:format>
        <dc:type
           rdf:resource="http://purl.org/dc/dcmitype/StillImage" />
        <dc:title></dc:title>
      </cc:Work>
    </rdf:RDF>
  </metadata>
  <defs
     id="defs3358" />
  <sodipodi:namedview
     pagecolor="#ffffff"
     bordercolor="#666666"
     borderopacity="1"
     objecttolerance="10"
     gridtolerance="10"
     guidetolerance="10"
     inkscape:pageopacity="0"
     inkscape:pageshadow="2"
     inkscape:window-width="1366"
     inkscape:window-height="744"
     id="namedview3356"
     showgrid="false"
     inkscape:zoom="0.5234153"
     inkscape:cx="808.88201"
     inkscape:cy="664.24634"
     inkscape:window-x="0"
     inkscape:window-y="24"
     inkscape:window-maximized="1"
     inkscape:current-layer="svg3354" />
  <path
     style="fill:#ffffff"
     d="M 325.31452,925.02266 C 245.68843,920.68769 170.33351,903.45132 99.405742,873.34921 69.886594,860.82113 29.895733,840.02421 8.4601111,826.05367 L 0.5,820.86571 6,821.44401 c 117.04861,12.30702 236.5202,-20.36002 330.36776,-90.33225 l 8.86777,-6.61176 -12.96914,-1.17827 c -33.5946,-3.05212 -60.43131,-10.63721 -88.61069,-25.0448 -43.7319,-22.35932 -79.79756,-58.66964 -102.16248,-102.85553 -6.28084,-12.40893 -14.17337,-32.07458 -13.24519,-33.00277 0.28682,-0.28682 5.63585,0.26651 11.88673,1.22963 13.77479,2.12237 45.94686,2.41916 59.36524,0.54766 12.0451,-1.67996 29.815,-5.2043 30.76388,-6.10145 0.42014,-0.39723 -2.72986,-1.54159 -7,-2.54302 C 192.49428,548.33539 158.88672,531.57785 132.5,510.29441 84.764458,471.79107 53.687458,414.86933 47.054516,353.78941 45.821153,342.4319 45.65735,326 46.777494,326 c 0.427621,0 1.764656,0.69144 2.971189,1.53652 7.567606,5.30056 38.285793,16.85855 55.751317,20.97693 13.121,3.09393 44.5,7.354 44.5,6.0414 0,-0.22797 -4.3875,-3.7078 -9.75,-7.73295 C 122.29067,333.34143 100.68684,310.71007 88.234656,292.33258 67.498836,261.72973 54.390212,226.82175 49.431265,189 47.385985,173.4007 47.932701,137.6563 50.440746,123 54.422938,99.729197 60.834389,79.59612 70.981004,58.5 79.537507,40.709927 78.180562,41.232261 87.375441,52.189237 113.00807,82.734079 148.93021,117.59657 181.43335,143.4726 270.57709,214.44068 376.69482,261.19902 490,279.43543 c 22.03895,3.54716 69.42705,8.47085 70.56599,7.33191 0.20889,-0.20889 -0.0367,-1.92949 -0.54585,-3.82357 -4.74343,-17.64744 -6.15789,-61.7028 -2.68585,-83.65468 C 567.96894,132.05169 603.9484,75.81915 660.34304,38.296006 681.06129,24.510761 709.29475,12.239678 733.5,6.4998612 753.342,1.7947068 765.00909,0.5449936 789,0.5550111 c 25.32849,0.010576 36.71042,1.3628764 58.5,6.9504526 38.17489,9.7893163 73.77169,29.5272253 101.84232,56.4700893 8.13666,7.809766 10.37084,9.445025 12.53,9.171051 6.6301,-0.841292 40.19608,-9.854336 54.64768,-14.673831 27.1912,-9.068091 58.5836,-23.027589 84.1779,-37.432133 l 7.1979,-4.051001 -1.8143,5.25518 c -16.1783,46.858988 -48.2577,88.702561 -89.3226,116.510131 -5.3575,3.62795 -9.5849,6.75243 -9.394,6.94328 0.1909,0.19086 5.0243,-0.34421 10.7411,-1.18905 34.8594,-5.15162 74.0078,-15.82722 106.7189,-29.10177 7.3287,-2.97408 13.5557,-5.40741 13.8378,-5.40741 0.6865,0 -7.0294,10.85899 -17.9534,25.2667 -23.4112,30.8773 -56.7874,64.16996 -88.3589,88.13766 l -9.0948,6.90436 -0.5291,36.09564 c -0.554,37.78391 -1.855,55.59103 -6.3269,86.59564 C 1000.1421,465.71678 953.87101,576.68716 884.63783,669 776.49452,813.1941 620.34517,901.55119 438.5,921.44704 c -32.99584,3.61011 -83.33919,5.20049 -113.18548,3.57562 z"
     id="path3364"
     inkscape:connector-curvature="0" />
</svg>
